<svg xmlns="http://www.w3.org/2000/svg" xmlns:svg="http://www.w3.org/2000/svg" xmlns:xlink="http://www.w3.org/1999/xlink" id="svg3067" width="300" height="300" version="1.1"><defs id="defs3069"><linearGradient id="linearGradient5752" x1="75" x2="75" y1="327.5" y2="185.172" gradientTransform="matrix(1.7555556,0,0,1.7555556,19.999999,-578.37377)" gradientUnits="userSpaceOnUse" xlink:href="#linearGradient5457"/><linearGradient id="linearGradient5457"><stop id="stop5459" offset="0" stop-color="#000" stop-opacity="0"/><stop id="stop5461" offset="1" stop-color="#fff" stop-opacity="1"/></linearGradient><linearGradient id="linearGradient5750" x1="75" x2="75" y1="230.688" y2="377.188" gradientTransform="translate(1119,-48.63782)" gradientUnits="userSpaceOnUse" xlink:href="#linearGradient5438"/><linearGradient id="linearGradient5438"><stop id="stop5440" offset="0" stop-color="#000" stop-opacity="1"/><stop id="stop5442" offset="1" stop-color="#c8c8c8" stop-opacity="1"/></linearGradient><linearGradient id="linearGradient3065" x1="75" x2="75" y1="230.688" y2="377.188" gradientTransform="matrix(1.7555556,0,0,1.7555556,19.999999,-578.37377)" gradientUnits="userSpaceOnUse" xlink:href="#linearGradient5438"/></defs><metadata id="metadata3072"/><g id="layer1" transform="translate(0,240)"><rect id="rect5736" width="263.333" height="263.333" x="20" y="-221.667" fill="url(#linearGradient3065)" fill-opacity="1" stroke="none" opacity=".941" rx="40.553"/><path id="path5742" fill="url(#linearGradient5752)" fill-opacity="1" stroke="none" d="m 60.542272,-216.67447 c -19.803193,0 -35.55,15.74681 -35.55,35.55 l 0,33.95903 c 33.604669,7.00174 76.275378,11.19167 122.724398,11.19167 50.18589,0 95.93075,-4.90285 130.62422,-12.94722 l 0,-32.20348 c 0,-19.80319 -15.74681,-35.55 -35.55,-35.55 l -182.248618,0 z" opacity=".982"/><path id="path5744" fill="none" stroke="#fff" stroke-opacity="1" d="m 23.09375,176.84375 c -12.109644,0 -21.8125,9.70286 -21.8125,21.8125 l 0,103.78125 c 0,12.10964 9.704943,21.84375 21.8125,21.84375 l 103.8125,0 c 12.10756,0 21.8125,-9.73411 21.8125,-21.84375 l 0,-103.78125 c 0,-12.10964 -9.70286,-21.8125 -21.8125,-21.8125 l -103.8125,0 z" opacity=".8" transform="matrix(1.7555556,0,0,1.7555556,19.999999,-529.85404)"/></g></svg>