<svg xmlns="http://www.w3.org/2000/svg" xmlns:svg="http://www.w3.org/2000/svg" id="svg2985" width="800" height="600" version="1.1"><metadata id="metadata2990"/><g id="layer1" transform="translate(-192,0)"><g id="g3213" fill="#fff"><path id="rect3172" fill="#fff" fill-opacity="1" stroke="none" d="m 261.28648,223.33971 0,359.64389 661.58402,0 0,-359.64389 -661.58402,0 z m 35.21065,34.08351 591.16272,0 0,14.52593 -591.16272,0 0,-14.52593 z m 0,95.00253 591.16272,0 0,14.52592 -591.16272,0 0,-14.52592 z m 0,94.97259 591.16272,0 0,14.52592 -204.87489,0 0,98.47677 -17.21488,0 0,-98.47677 -146.94769,0 0,98.47677 -17.21488,0 0,-98.47677 -204.91038,0 0,-14.52592 z"/><path id="rect3187" fill="#fff" fill-opacity="1" stroke="none" d="m 261.28648,140.99072 0,63.8903 43.80034,0 63.00294,-63.8903 -106.80328,0 z m 186.3112,0 -63.00293,63.8903 79.50792,0 63.00294,-63.8903 -79.50793,0 z m 159.01585,0 -63.00293,63.8903 79.50792,0 63.00294,-63.8903 -79.50793,0 z m 159.01585,0 -63.00293,63.8903 79.50792,0 63.00294,-63.8903 -79.50793,0 z m 157.24112,1.81023 -61.2282,62.08007 61.2282,0 0,-62.08007 z"/><path id="rect3191" fill="#fff" fill-opacity="1" stroke="none" d="m 259.76239,74.386702 5.54035,63.649618 106.40095,-9.26162 -68.30595,-58.186215 -43.63535,3.798217 z M 382.60616,63.69383 450.91212,121.88005 530.12053,114.9854 461.81458,56.799174 382.60616,63.69383 z M 541.023,49.904518 609.32895,108.09074 688.53737,101.19609 620.23142,43.009864 541.023,49.904518 z m 158.41684,-13.78931 68.30595,58.186223 79.20842,-6.894654 -68.30595,-58.186225 -79.20842,6.894656 z m 158.41685,-13.789311 66.38093,56.536717 -5.38338,-61.846217 -60.99755,5.3095 z"/></g></g></svg>